<svg width="16" height="16" viewBox="0 0 16 16" fill="none" xmlns="http://www.w3.org/2000/svg">
<path d="M13.3333 4.66666H7.33331" stroke="#5D5C5F" stroke-width="2" stroke-linecap="round" stroke-linejoin="round"/>
<path d="M9.33331 11.3333H3.33331" stroke="#5D5C5F" stroke-width="2" stroke-linecap="round" stroke-linejoin="round"/>
<path d="M11.3333 13.3333C12.4379 13.3333 13.3333 12.4379 13.3333 11.3333C13.3333 10.2288 12.4379 9.33334 11.3333 9.33334C10.2287 9.33334 9.33331 10.2288 9.33331 11.3333C9.33331 12.4379 10.2287 13.3333 11.3333 13.3333Z" stroke="#5D5C5F" stroke-width="2" stroke-linecap="round" stroke-linejoin="round"/>
<path d="M4.66669 6.66666C5.77126 6.66666 6.66669 5.77123 6.66669 4.66666C6.66669 3.56209 5.77126 2.66666 4.66669 2.66666C3.56212 2.66666 2.66669 3.56209 2.66669 4.66666C2.66669 5.77123 3.56212 6.66666 4.66669 6.66666Z" stroke="#5D5C5F" stroke-width="2" stroke-linecap="round" stroke-linejoin="round"/>
</svg>
