<?xml version="1.0" encoding="UTF-8"?>
<svg version="1.1" xmlns="http://www.w3.org/2000/svg" width="512" height="512">
  <path
    d="M0 0 C44.36369954 18.19853042 91.0940914 30.05015543 138.5625 36.5 C139.2903067 36.59945923 140.0181134 36.69891846 140.76797485 36.8013916 C162.86433447 39.77968807 184.97744027 41.06371412 207.25 41.8125 C209.69858682 41.8992015 212.14715474 41.98643845 214.59570312 42.07421875 C220.50109953 42.28478956 226.40669076 42.48886227 232.3125 42.6875 C229.49299397 69.30897494 226.63244825 95.9260134 223.75987244 122.54180908 C223.4507586 125.40601291 223.14178296 128.27023161 222.832901 131.13446045 C220.63818206 151.48551383 218.43616753 171.83575697 216.22023296 192.18451214 C215.26569122 200.9511047 214.31358985 209.71794641 213.36795044 218.48550415 C212.54792442 226.08813478 211.72256644 233.69016494 210.8908639 241.29152739 C210.46006052 245.2302772 210.03157566 249.16924074 209.6096077 253.10894775 C204.93552059 296.70403193 204.93552059 296.70403193 199.1875 317.5625 C198.89673584 318.62710449 198.60597168 319.69170898 198.30639648 320.78857422 C193.28280699 338.4771231 186.04576334 355.51904608 177.3125 371.6875 C176.96896484 372.33444824 176.62542969 372.98139648 176.27148438 373.64794922 C164.59251591 395.55935943 149.47000809 414.80858302 132.3125 432.6875 C131.45914062 433.58210938 130.60578125 434.47671875 129.7265625 435.3984375 C123.95109366 441.3196595 117.81606237 446.58443558 111.3125 451.6875 C109.79849609 452.89212891 109.79849609 452.89212891 108.25390625 454.12109375 C75.04915461 480.31538314 22.9946446 510.16510763 -20.6875 506.6875 C-24.35781275 506.15455798 -27.94942329 505.39501905 -31.5625 504.5625 C-33.06514404 504.22255005 -33.06514404 504.22255005 -34.59814453 503.87573242 C-77.9880624 493.82548355 -118.52190339 474.06934382 -151.421875 443.76953125 C-153.49642036 441.8630956 -155.61015931 440.0198439 -157.75 438.1875 C-165.00104175 431.83919839 -171.43613589 425.00980394 -177.44921875 417.48046875 C-178.88359581 415.69062652 -180.34267734 413.92014294 -181.83203125 412.17578125 C-192.81604756 399.25224494 -201.85669181 384.70364808 -209.6875 369.6875 C-210.11385742 368.87812988 -210.54021484 368.06875977 -210.97949219 367.23486328 C-225.96936787 338.43681918 -234.03644928 308.11616235 -237.97924805 276.02685547 C-238.08536451 275.1708795 -238.19148097 274.31490352 -238.30081308 273.43298888 C-241.01935875 251.47681963 -243.43238425 229.48656287 -245.83883882 207.4944253 C-246.46803998 201.74979156 -247.10054154 196.00552102 -247.73258972 190.26119995 C-248.78750524 180.6694685 -249.84021706 171.07749742 -250.89135742 161.48535156 C-252.1063081 150.39847121 -253.32413565 139.31190985 -254.54358178 128.22552311 C-255.8496559 116.35154862 -257.15407303 104.4773926 -258.45778441 92.60315847 C-258.8319356 89.19618347 -259.20635626 85.78923817 -259.58082008 82.38229752 C-260.16551837 77.0616082 -260.74907835 71.74079523 -261.3317337 66.41988182 C-261.54583125 64.46622721 -261.76029938 62.51261317 -261.97515678 60.55904198 C-262.26710525 57.90390138 -262.55772259 55.24861851 -262.84797668 52.59329224 C-262.9340579 51.81319451 -263.02013911 51.03309679 -263.10882884 50.22935975 C-263.6875 44.9159104 -263.6875 44.9159104 -263.6875 42.6875 C-263.10932022 42.66910568 -262.53114044 42.65071136 -261.93544006 42.63175964 C-184.80448843 40.15369652 -109.62804713 31.45714701 -37.42578125 2.4375 C-36.77834961 2.17777908 -36.13091797 1.91805817 -35.46386719 1.65046692 C-32.43833259 0.43002425 -29.42709763 -0.81647335 -26.42724609 -2.09887695 C-15.92983294 -6.45609709 -10.09615457 -4.28185492 0 0 Z "
    fill="#F2F2F2" transform="translate(271.6875,5.3125)" />
  <path
    d="M0 0 C44.36369954 18.19853042 91.0940914 30.05015543 138.5625 36.5 C139.2903067 36.59945923 140.0181134 36.69891846 140.76797485 36.8013916 C162.86433447 39.77968807 184.97744027 41.06371412 207.25 41.8125 C209.69858682 41.8992015 212.14715474 41.98643845 214.59570312 42.07421875 C220.50109953 42.28478956 226.40669076 42.48886227 232.3125 42.6875 C229.49299397 69.30897494 226.63244825 95.9260134 223.75987244 122.54180908 C223.4507586 125.40601291 223.14178296 128.27023161 222.832901 131.13446045 C220.63818206 151.48551383 218.43616753 171.83575697 216.22023296 192.18451214 C215.26569122 200.9511047 214.31358985 209.71794641 213.36795044 218.48550415 C212.54792442 226.08813478 211.72256644 233.69016494 210.8908639 241.29152739 C210.46006052 245.2302772 210.03157566 249.16924074 209.6096077 253.10894775 C204.93552059 296.70403193 204.93552059 296.70403193 199.1875 317.5625 C198.89673584 318.62710449 198.60597168 319.69170898 198.30639648 320.78857422 C193.28280699 338.4771231 186.04576334 355.51904608 177.3125 371.6875 C176.96896484 372.33444824 176.62542969 372.98139648 176.27148438 373.64794922 C164.59251591 395.55935943 149.47000809 414.80858302 132.3125 432.6875 C131.45914062 433.58210938 130.60578125 434.47671875 129.7265625 435.3984375 C123.95109366 441.3196595 117.81606237 446.58443558 111.3125 451.6875 C109.79849609 452.89212891 109.79849609 452.89212891 108.25390625 454.12109375 C75.04915461 480.31538314 22.9946446 510.16510763 -20.6875 506.6875 C-24.35781275 506.15455798 -27.94942329 505.39501905 -31.5625 504.5625 C-33.06514404 504.22255005 -33.06514404 504.22255005 -34.59814453 503.87573242 C-77.9880624 493.82548355 -118.52190339 474.06934382 -151.421875 443.76953125 C-153.49642036 441.8630956 -155.61015931 440.0198439 -157.75 438.1875 C-165.00104175 431.83919839 -171.43613589 425.00980394 -177.44921875 417.48046875 C-178.88359581 415.69062652 -180.34267734 413.92014294 -181.83203125 412.17578125 C-192.81604756 399.25224494 -201.85669181 384.70364808 -209.6875 369.6875 C-210.11385742 368.87812988 -210.54021484 368.06875977 -210.97949219 367.23486328 C-225.96936787 338.43681918 -234.03644928 308.11616235 -237.97924805 276.02685547 C-238.08536451 275.1708795 -238.19148097 274.31490352 -238.30081308 273.43298888 C-241.01935875 251.47681963 -243.43238425 229.48656287 -245.83883882 207.4944253 C-246.46803998 201.74979156 -247.10054154 196.00552102 -247.73258972 190.26119995 C-248.78750524 180.6694685 -249.84021706 171.07749742 -250.89135742 161.48535156 C-252.1063081 150.39847121 -253.32413565 139.31190985 -254.54358178 128.22552311 C-255.8496559 116.35154862 -257.15407303 104.4773926 -258.45778441 92.60315847 C-258.8319356 89.19618347 -259.20635626 85.78923817 -259.58082008 82.38229752 C-260.16551837 77.0616082 -260.74907835 71.74079523 -261.3317337 66.41988182 C-261.54583125 64.46622721 -261.76029938 62.51261317 -261.97515678 60.55904198 C-262.26710525 57.90390138 -262.55772259 55.24861851 -262.84797668 52.59329224 C-262.9340579 51.81319451 -263.02013911 51.03309679 -263.10882884 50.22935975 C-263.6875 44.9159104 -263.6875 44.9159104 -263.6875 42.6875 C-263.10932022 42.66910568 -262.53114044 42.65071136 -261.93544006 42.63175964 C-184.80448843 40.15369652 -109.62804713 31.45714701 -37.42578125 2.4375 C-36.77834961 2.17777908 -36.13091797 1.91805817 -35.46386719 1.65046692 C-32.43833259 0.43002425 -29.42709763 -0.81647335 -26.42724609 -2.09887695 C-15.92983294 -6.45609709 -10.09615457 -4.28185492 0 0 Z M-23.25390625 53.6640625 C-24.36958984 54.08453857 -25.48527344 54.50501465 -26.63476562 54.93823242 C-28.42430664 55.61849487 -28.42430664 55.61849487 -30.25 56.3125 C-48.92237858 63.29748886 -67.38914631 69.05567868 -86.73144531 73.9296875 C-89.10950259 74.53932491 -91.47485336 75.17228249 -93.8359375 75.84375 C-104.70131622 78.92683229 -115.76425132 80.92807614 -126.86547852 82.96582031 C-129.66428232 83.49429454 -132.45262344 84.04581036 -135.24194336 84.62011719 C-149.74401546 87.56335499 -164.29748576 89.32648961 -179 90.9375 C-181.40958813 91.20759462 -183.81909402 91.47842393 -186.22851562 91.75 C-192.04725999 92.40427314 -197.86693954 93.04959584 -203.6875 93.6875 C-203.95756765 102.5920711 -202.94775006 111.36419768 -202.03515625 120.20703125 C-201.94760637 121.06888346 -201.8600565 121.93073566 -201.76985359 122.81870461 C-199.55161782 144.65095678 -197.02136733 166.44812093 -194.48852539 188.2456665 C-193.40373164 197.58389022 -192.32383237 206.92267845 -191.24609375 216.26171875 C-191.13157427 217.25252253 -191.01705479 218.2433263 -190.89906502 219.26415443 C-189.38425304 232.38344098 -187.92366503 245.50543228 -186.63645935 258.6492157 C-181.8662217 306.75174089 -165.88023935 351.53293432 -132.76171875 387.42578125 C-130.88628414 389.47074667 -129.09717467 391.56369475 -127.3125 393.6875 C-115.63156129 407.02948962 -100.79132764 417.56565428 -85.6875 426.6875 C-85.03749023 427.08437012 -84.38748047 427.48124023 -83.71777344 427.89013672 C-67.17622444 437.88085187 -49.2815805 445.11175924 -30.6875 450.3125 C-29.81061523 450.56032227 -28.93373047 450.80814453 -28.03027344 451.06347656 C-19.30902236 453.34897617 -11.83953523 453.15597952 -3.1875 450.75 C-2.38344727 450.52965088 -1.57939453 450.30930176 -0.75097656 450.08227539 C36.19945851 439.61345182 66.48598225 421.91164805 94.3125 395.6875 C95.0446875 394.99785156 95.776875 394.30820312 96.53125 393.59765625 C117.47780815 373.27450757 131.54443786 347.49823523 142.3125 320.6875 C142.80621094 319.48867188 143.29992187 318.28984375 143.80859375 317.0546875 C151.7215645 296.59435814 153.85763158 274.32415132 156.3125 252.6875 C156.3939325 251.97082153 156.47536499 251.25414307 156.55926514 250.51574707 C158.23092802 235.74754652 159.78365278 220.96686801 161.27734375 206.1796875 C161.60134663 202.97393645 161.92549511 199.76820027 162.25 196.5625 C162.33088867 195.76307983 162.41177734 194.96365967 162.49511719 194.14001465 C164.36606803 175.70874544 166.52720489 157.3131158 168.69677734 138.91503906 C169.59247558 131.31604512 170.4810272 123.71624472 171.35839844 116.1151123 C171.61821836 113.87107239 171.88132788 111.62743422 172.14453125 109.38378906 C172.30098215 108.02932007 172.45724353 106.67482916 172.61328125 105.3203125 C172.81691284 103.57065186 172.81691284 103.57065186 173.0246582 101.78564453 C173.2778366 99.06059458 173.36978997 96.42141587 173.3125 93.6875 C171.46881836 93.50682983 171.46881836 93.50682983 169.58789062 93.32250977 C142.85758958 90.6878822 116.38923663 87.63344197 90.0625 82.1875 C89.1645874 82.00226776 88.2666748 81.81703552 87.34155273 81.62619019 C70.85232154 78.19788062 54.42189738 74.34367712 38.25 69.625 C37.29955811 69.34825439 36.34911621 69.07150879 35.36987305 68.78637695 C22.65974849 65.00036119 10.13946377 60.61041902 -2.38671875 56.26171875 C-3.05031403 56.03176208 -3.7139093 55.80180542 -4.39761353 55.56488037 C-7.11630569 54.61582466 -9.80009892 53.64029007 -12.45629883 52.52661133 C-16.58821317 50.97267878 -19.29336619 52.15738035 -23.25390625 53.6640625 Z "
    fill="#997BCF" transform="translate(271.6875,5.3125)" />
  <path
    d="M0 0 C-0.66642862 7.62329323 -2.20131437 14.91497003 -3.875 22.375 C-6.33043541 33.53820487 -8.41108128 44.68243858 -10 56 C-15.85983019 57.58512573 -21.59252416 58.5837504 -27.6171875 59.2890625 C-28.51438507 59.39721283 -29.41158264 59.50536316 -30.33596802 59.61679077 C-32.22318551 59.84279097 -34.11071604 60.06619094 -35.99853516 60.28710938 C-38.86074498 60.6233255 -41.7213606 60.97127037 -44.58203125 61.3203125 C-46.426999 61.53977265 -48.2720487 61.75854517 -50.1171875 61.9765625 C-51.38017166 62.13120468 -51.38017166 62.13120468 -52.66867065 62.28897095 C-58.46726471 62.95584118 -64.16554676 63.11408608 -70 63 C-66.56248594 98.95079078 -62.43791237 134.81995989 -58.28147316 170.69331264 C-57.69462003 175.75898626 -57.10884213 180.82478381 -56.5234375 185.890625 C-56.41057655 186.86630369 -56.29771561 187.84198238 -56.18143463 188.8472271 C-54.67733164 201.86681975 -53.22989573 214.88933176 -51.95211792 227.93328857 C-47.17919487 276.04673773 -31.20257037 320.83025589 1.921875 356.734375 C3.81818331 358.8017788 5.63029606 360.91750093 7.4375 363.0625 C18.76995219 376.00276006 33.34868968 386.15144879 48 395 C48.65000977 395.39687012 49.30001953 395.79374023 49.96972656 396.20263672 C66.51127556 406.19335187 84.4059195 413.42425924 103 418.625 C103.87688477 418.87282227 104.75376953 419.12064453 105.65722656 419.37597656 C114.70386437 421.74674734 122.17797812 421.34717822 131.125 418.8125 C131.94323242 418.59126465 132.76146484 418.3700293 133.60449219 418.14208984 C140.09175899 416.353238 146.40990426 414.19806785 152.703125 411.8203125 C157.62280701 410.596221 161.25751578 411.09786278 165.75390625 413.42578125 C166.68074219 414.04839844 167.60757812 414.67101562 168.5625 415.3125 C183.29229289 424.84824296 199.01986325 432.79410279 215 440 C213.73906688 443.78279936 212.70115895 443.99904799 209.2421875 445.8203125 C207.73277588 446.61671143 207.73277588 446.61671143 206.19287109 447.42919922 C205.09797363 447.98881348 204.00307617 448.54842773 202.875 449.125 C201.74787598 449.7039502 200.62075195 450.28290039 199.45947266 450.87939453 C178.20733327 461.60207837 155.50957204 469.60805948 132.1875 474.4375 C131.01537964 474.68367065 131.01537964 474.68367065 129.81958008 474.93481445 C120.21718603 476.77497297 111.60618326 476.05963829 102.125 473.875 C100.62235596 473.53505005 100.62235596 473.53505005 99.08935547 473.18823242 C55.6994376 463.13798355 15.16559661 443.38184382 -17.734375 413.08203125 C-19.80892036 411.1755956 -21.92265931 409.3323439 -24.0625 407.5 C-31.31354175 401.15169839 -37.74863589 394.32230394 -43.76171875 386.79296875 C-45.19609581 385.00312652 -46.65517734 383.23264294 -48.14453125 381.48828125 C-59.12854756 368.56474494 -68.16919181 354.01614808 -76 339 C-76.42635742 338.19062988 -76.85271484 337.38125977 -77.29199219 336.54736328 C-92.28186787 307.74931918 -100.34894928 277.42866235 -104.29174805 245.33935547 C-104.39786451 244.4833795 -104.50398097 243.62740352 -104.61331308 242.74548888 C-107.33185875 220.78931963 -109.74488425 198.79906287 -112.15133882 176.8069253 C-112.78053998 171.06229156 -113.41304154 165.31802102 -114.04508972 159.57369995 C-115.10000524 149.9819685 -116.15271706 140.38999742 -117.20385742 130.79785156 C-118.4188081 119.71097121 -119.63663565 108.62440985 -120.85608178 97.53802311 C-122.1621559 85.66404862 -123.46657303 73.7898926 -124.77028441 61.91565847 C-125.1444356 58.50868347 -125.51885626 55.10173817 -125.89332008 51.69479752 C-126.47801837 46.3741082 -127.06157835 41.05329523 -127.6442337 35.73238182 C-127.85833125 33.77872721 -128.07279938 31.82511317 -128.28765678 29.87154198 C-128.57960525 27.21640138 -128.87022259 24.56111851 -129.16047668 21.90579224 C-129.2895985 20.73564565 -129.2895985 20.73564565 -129.42132884 19.54185975 C-130 14.2284104 -130 14.2284104 -130 12 C-129.13273033 11.97240852 -129.13273033 11.97240852 -128.24794006 11.94425964 C-86.20586693 10.59353197 -44.04061264 9.05994854 -2.73803711 0.35180664 C-1 0 -1 0 0 0 Z "
    fill="#5E35A7" transform="translate(138,36)" />
  <path
    d="M0 0 C-0.14477936 1.93757904 -0.29089498 3.87505824 -0.4375 5.8125 C-0.51871094 6.89144531 -0.59992188 7.97039062 -0.68359375 9.08203125 C-0.84659096 11.10037945 -1.01396073 13.11919898 -1.24951172 15.13037109 C-2.38212214 25.38121229 -2.24392764 35.69994608 -2.25 46 C-2.25067474 47.0271109 -2.25134949 48.0542218 -2.25204468 49.11245728 C-2.23519991 65.27382694 -1.61393039 81.02064412 1 97 C1.26538574 98.66119873 1.26538574 98.66119873 1.53613281 100.35595703 C7.71183131 138.15144517 19.10247058 175.03480514 36.95507812 209 C38.08771684 211.16789167 39.19274499 213.34871016 40.296875 215.53125 C51.72197299 237.92508741 65.74143495 258.82176305 82 278 C82.8146875 278.98742187 83.629375 279.97484375 84.46875 280.9921875 C94.80312821 293.47096366 105.74240142 305.38645964 118 316 C118.74894531 316.69867188 119.49789062 317.39734375 120.26953125 318.1171875 C134.10290013 331.00997906 150.20387345 342.33787002 166.51367188 351.88891602 C167.00416016 352.25557373 167.49464844 352.62223145 168 353 C168 353.66 168 354.32 168 355 C163.69004652 356.4659338 159.37661248 357.9213559 155.0625 359.375 C153.85013672 359.7875 152.63777344 360.2 151.38867188 360.625 C137.638127 365.24577931 127.17031046 367.6303321 113 363.625 C112.05721191 363.36098389 111.11442383 363.09696777 110.14306641 362.82495117 C79.60400326 353.92752702 49.67343833 338.95832839 26.71875 316.63671875 C24.47871012 314.46426628 22.2049649 312.4359677 19.8125 310.4375 C-26.63571987 269.9043979 -39.69220969 208.58621442 -45.41571045 150.28894043 C-46.95787774 134.59296531 -48.66684159 118.92148898 -50.47265625 103.25390625 C-50.5830146 102.29637577 -50.69337296 101.33884529 -50.8070755 100.35229874 C-51.92826203 90.63467476 -53.05788302 80.91804332 -54.19308472 71.20204735 C-58.15557273 37.27080782 -58.15557273 37.27080782 -59.30078125 24.94921875 C-59.41633614 23.72813164 -59.41633614 23.72813164 -59.53422546 22.4823761 C-59.98628632 17.3063299 -60.05761884 12.19567399 -60 7 C-59.36186371 6.92705215 -58.72372742 6.85410431 -58.06625366 6.77894592 C-51.41488747 6.01829636 -44.76377044 5.25549589 -38.11279297 4.49145508 C-35.63173627 4.20672506 -33.15061691 3.92254054 -30.66943359 3.63891602 C-27.09976793 3.23077042 -23.53033343 2.82065325 -19.9609375 2.41015625 C-18.85446869 2.28407486 -17.74799988 2.15799347 -16.60800171 2.02809143 C-11.14710622 1.39811006 -5.4741828 0 0 0 Z "
    fill="#D8D8D7" transform="translate(128,92)" />
  <path
    d="M0 0 C10.58528187 8.41899163 17.5549616 17.18578773 22 30 C22.2475 30.70382813 22.495 31.40765625 22.75 32.1328125 C26.89711722 46.82051932 23.99152951 62.43271629 17.25 75.75 C9.05712447 89.80660441 -2.29218216 96.05403414 -17 102 C-19.84548454 124.12066598 -19.84548454 124.12066598 -13.84765625 144.328125 C-11.42932585 146.79111295 -8.83794528 148.65991089 -5.96484375 150.5546875 C-4.49724609 151.76511719 -4.49724609 151.76511719 -3 153 C-2.71484375 156.4765625 -2.71484375 156.4765625 -4 160 C-6.28599366 162.56031289 -8.58978926 164.64910727 -11.2265625 166.81640625 C-12.96979728 168.29865649 -12.96979728 168.29865649 -15 171 C-15.13469945 175.21748614 -14.60880008 177.22321399 -12.00390625 180.546875 C-11.19824219 181.27390625 -10.39257812 182.0009375 -9.5625 182.75 C-6.96225559 185.13738331 -4.96779999 187.04830002 -3 190 C-3.04033475 194.84689285 -4.64647487 197.09922304 -8.046875 200.45117188 C-9.10116568 201.44413624 -10.16111887 202.43112164 -11.2265625 203.41210938 C-14.00363668 206.17110365 -14.97749335 207.57565581 -15.1875 211.53515625 C-13.54720557 216.3211469 -10.54568308 218.71580439 -6.7734375 221.81640625 C-3.91683358 224.36800819 -3.02794085 225.5993643 -2.7578125 229.47265625 C-4.37988594 234.07873272 -6.81324615 235.91000264 -10.5 238.9375 C-15.00036522 242.81189557 -15.00036522 242.81189557 -17.5 248.02636719 C-17.62666924 250.14510818 -17.60893192 252.19314434 -17.5 254.3125 C-17.37370367 257.09561182 -17.53554036 259.1889567 -18 262 C-21.85537665 265.83819072 -26.05736362 267.72581586 -31 270 C-32.55884939 270.99439699 -34.1042472 272.01076442 -35.625 273.0625 C-36.73875 273.701875 -37.8525 274.34125 -39 275 C-42.43632231 273.85455923 -43.33471585 272.7288492 -45.625 270 C-46.54152344 268.9171875 -46.54152344 268.9171875 -47.4765625 267.8125 C-47.97929687 267.214375 -48.48203125 266.61625 -49 266 C-49.33 265.67 -49.66 265.34 -50 265 C-50.09688731 262.88639683 -50.12186842 260.7694933 -50.12025452 258.65367126 C-50.12110894 257.98311425 -50.12196337 257.31255724 -50.12284368 256.62168032 C-50.12450037 254.35835602 -50.11897407 252.09510466 -50.11352539 249.83178711 C-50.11324353 248.21589662 -50.11340122 246.60000601 -50.1139679 244.9841156 C-50.11425593 240.5834776 -50.10835829 236.18286661 -50.10139394 231.78223491 C-50.09516134 227.1884479 -50.09455668 222.59466034 -50.09336853 218.00086975 C-50.09025494 209.29565229 -50.08204117 200.59044732 -50.07201904 191.88523537 C-50.06085877 181.97730082 -50.05534767 172.06936569 -50.05032361 162.16142642 C-50.03985858 141.7742773 -50.0222586 121.38713943 -50 101 C-50.94004883 100.69457275 -51.88009766 100.38914551 -52.84863281 100.07446289 C-67.08235004 95.22145781 -77.36344367 84.13548822 -84 71 C-89.72696225 58.7857161 -90.34824759 42.1547075 -86.375 29.25 C-80.39528328 14.70699557 -70.1928689 2.02830166 -55.65234375 -4.50390625 C-37.86615622 -11.54218339 -16.10540483 -11.69949001 0 0 Z "
    fill="#673BB7" transform="translate(288,123)" />
  <path
    d="M0 0 C4.13931413 1.69632138 6.39036486 4.13471142 8.9375 7.75 C10.31736393 11.97076025 10.7102021 15.60463811 10 20 C7.29820537 25.3035228 3.70503105 29.09832298 -2 31 C-6.66694522 31.54225459 -10.07771048 31.4698456 -14.3125 29.3125 C-17.83669888 26.2800498 -21.57611807 22.91872985 -22.2734375 18.1171875 C-22.5205663 12.661344 -21.54561758 9.29895283 -18.58203125 4.7265625 C-13.38368574 -0.94669358 -7.23111554 -1.01522947 0 0 Z "
    fill="#F0EFF1" transform="translate(262,137)" />
</svg>